<svg width="1024" height="1024" viewBox="124 124 776 776" fill="none" xmlns="http://www.w3.org/2000/svg">
  <defs>
    <linearGradient id="card" x1="512" y1="132" x2="512" y2="894" gradientUnits="userSpaceOnUse">
      <stop offset="0" stop-color="#FFFFFF"/>
      <stop offset="1" stop-color="#F7F8FA"/>
    </linearGradient>
    <linearGradient id="ink" x1="180" y1="430" x2="824" y2="704" gradientUnits="userSpaceOnUse">
      <stop stop-color="#2F343A"/>
      <stop offset="1" stop-color="#474D54"/>
    </linearGradient>
    <linearGradient id="blueNode" x1="736" y1="302" x2="842" y2="408" gradientUnits="userSpaceOnUse">
      <stop stop-color="#EEF4FF"/>
      <stop offset="1" stop-color="#CAD8F7"/>
    </linearGradient>
    <linearGradient id="greenNode" x1="742" y1="480" x2="844" y2="582" gradientUnits="userSpaceOnUse">
      <stop stop-color="#F0FAF1"/>
      <stop offset="1" stop-color="#CFEBD0"/>
    </linearGradient>
    <linearGradient id="yellowNode" x1="742" y1="654" x2="844" y2="756" gradientUnits="userSpaceOnUse">
      <stop stop-color="#FFF5D9"/>
      <stop offset="1" stop-color="#FFE19A"/>
    </linearGradient>
  </defs>

  <rect x="132" y="132" width="760" height="760" rx="82" fill="url(#card)"/>
  <rect x="132" y="132" width="760" height="760" rx="82" stroke="#3F454B" stroke-width="16"/>

  <path d="M178 578V438H219L260 505L301 438H342V578H304V498L272 551H248L216 498V578H178Z" fill="url(#ink)"/>
  <path d="M402 438H440V543H480L421 613L362 543H402V438Z" fill="url(#ink)"/>

  <rect x="494" y="346" width="8" height="332" rx="4" fill="#D4D7DA"/>

  <path d="M622 512H730" stroke="#3F454B" stroke-width="18" stroke-linecap="round"/>
  <path d="M620 490C679 490 674 420 674 389C674 357 700 336 733 336" stroke="#3F454B" stroke-width="18" stroke-linecap="round"/>
  <path d="M620 536C679 536 674 606 674 637C674 669 700 690 733 690" stroke="#3F454B" stroke-width="18" stroke-linecap="round"/>

  <rect x="514" y="470" width="120" height="84" rx="18" fill="#FFFFFF" stroke="#3F454B" stroke-width="16"/>
  <rect x="734" y="306" width="118" height="84" rx="18" fill="url(#blueNode)" stroke="#3F454B" stroke-width="16"/>
  <rect x="734" y="474" width="118" height="84" rx="18" fill="url(#greenNode)" stroke="#3F454B" stroke-width="16"/>
  <rect x="734" y="648" width="118" height="84" rx="18" fill="url(#yellowNode)" stroke="#3F454B" stroke-width="16"/>
</svg>
